<?xml version="1.0" encoding="UTF-8"?>
<svg width="25px" height="24px" viewBox="0 0 25 24" version="1.1" xmlns="http://www.w3.org/2000/svg" xmlns:xlink="http://www.w3.org/1999/xlink">
    <title>路径 2</title>
    <g id="页面-1" stroke="none" stroke-width="1" fill="none" fill-rule="evenodd">
        <g id="钱包-Details" transform="translate(-29.000000, -140.000000)" fill="#33322C" fill-rule="nonzero">
            <g id="编组-2" transform="translate(28.000000, 139.000000)">
                <g id="路径-2" transform="translate(0.996095, 0.999977)">
                    <path d="M12.831123,0.501863869 C13.6585336,-0.229891207 14.9224871,-0.152347091 15.6542422,0.675063501 L24.4981594,10.6750635 C25.6398223,11.9659654 24.7233171,14.0000233 23,14.0000233 L2,14.0000233 C0.8954305,14.0000233 0,13.1045928 0,12.0000233 C0,10.8954538 0.8954305,10.0000233 2,10.0000233 L18.561,10.0000233 L12.6579234,3.32498305 C11.9646817,2.54112038 11.9977917,1.36545742 12.7067195,0.621685609 L12.831123,0.501863869 Z" id="路径备份-3" transform="translate(12.501952, 7.000012) scale(-1, 1) translate(-12.501952, -7.000012) "></path>
                    <path d="M12.831123,10.5018871 C13.6585336,9.77013207 14.9224871,9.84767618 15.6542422,10.6750868 L24.4981594,20.6750868 C25.6398223,21.9659887 24.7233171,24.0000465 23,24.0000465 L2,24.0000465 C0.8954305,24.0000465 0,23.104616 0,22.0000465 C0,20.895477 0.8954305,20.0000465 2,20.0000465 L18.561,20.0000465 L12.6579234,13.3250063 C11.9646817,12.5411437 11.9977917,11.3654807 12.7067195,10.6217089 L12.831123,10.5018871 Z" id="路径备份-4" transform="translate(12.501952, 17.000035) scale(-1, -1) translate(-12.501952, -17.000035) "></path>
                </g>
            </g>
        </g>
    </g>
</svg>