<?xml version="1.0" encoding="UTF-8"?>
<svg width="20px" height="20px" viewBox="0 0 20 20" version="1.1" xmlns="http://www.w3.org/2000/svg" xmlns:xlink="http://www.w3.org/1999/xlink">
    <title>路径 2备份 8</title>
    <g id="页面-1" stroke="none" stroke-width="1" fill="none" fill-rule="evenodd">
        <g id="Mining/修改呢称" transform="translate(-341.000000, -229.000000)" fill="#6F4F00" fill-rule="nonzero">
            <g id="编组" transform="translate(25.000000, 203.000000)">
                <g id="路径-2备份-8" transform="translate(316.000000, 26.000000)">
                    <path d="M16.5857864,0.585786438 C17.366835,-0.195262146 18.633165,-0.195262146 19.4142136,0.585786438 C20.1952621,1.36683502 20.1952621,2.63316498 19.4142136,3.41421356 L3.41421356,19.4142136 C2.63316498,20.1952621 1.36683502,20.1952621 0.585786438,19.4142136 C-0.195262146,18.633165 -0.195262146,17.366835 0.585786438,16.5857864 L16.5857864,0.585786438 Z" id="路径-4"></path>
                    <path d="M16.5857864,0.585786438 C17.366835,-0.195262146 18.633165,-0.195262146 19.4142136,0.585786438 C20.1952621,1.36683502 20.1952621,2.63316498 19.4142136,3.41421356 L3.41421356,19.4142136 C2.63316498,20.1952621 1.36683502,20.1952621 0.585786438,19.4142136 C-0.195262146,18.633165 -0.195262146,17.366835 0.585786438,16.5857864 L16.5857864,0.585786438 Z" id="路径-4" transform="translate(10.000000, 10.000000) scale(-1, 1) translate(-10.000000, -10.000000) "></path>
                </g>
            </g>
        </g>
    </g>
</svg>