<?xml version="1.0" encoding="UTF-8"?>
<svg width="40px" height="40px" viewBox="0 0 40 40" version="1.1" xmlns="http://www.w3.org/2000/svg" xmlns:xlink="http://www.w3.org/1999/xlink">
    <title>编组 3</title>
    <g id="页面-1" stroke="none" stroke-width="1" fill="none" fill-rule="evenodd">
        <g id="分享" transform="translate(-295.000000, -763.000000)">
            <g id="编组-7" transform="translate(59.000000, 763.000000)">
                <g id="编组-6" transform="translate(216.000000, 0.000000)">
                    <g id="编组-3" transform="translate(20.000000, 0.000000)">
                        <circle id="椭圆形" fill="#3DBDC8" cx="20" cy="20" r="20"></circle>
                        <g id="编组-25" transform="translate(9.000000, 9.000000)" fill="#FFFFFF">
                            <circle id="椭圆形" cx="10" cy="6" r="6"></circle>
                            <path d="M20,22 C20,16.4771525 15.5228475,12 10,12 C4.4771525,12 0,16.4771525 0,22 C20,22 0,22 20,22 Z" id="椭圆形"></path>
                            <path d="M21.5189222,2.84645814 C21.7950645,2.84645814 22.0189222,3.07031576 22.0189222,3.34645814 C22.0189222,3.62260051 21.7950645,3.84645814 21.5189222,3.84645814 L18.1546528,3.84645814 C17.8785105,3.84645814 17.6546528,3.62260051 17.6546528,3.34645814 C17.6546528,3.07031576 17.8785105,2.84645814 18.1546528,2.84645814 L21.5189222,2.84645814 Z" id="路径-7" fill-rule="nonzero"></path>
                            <path d="M21.5189222,4.84645814 C21.7950645,4.84645814 22.0189222,5.07031576 22.0189222,5.34645814 C22.0189222,5.62260051 21.7950645,5.84645814 21.5189222,5.84645814 L18.1546528,5.84645814 C17.8785105,5.84645814 17.6546528,5.62260051 17.6546528,5.34645814 C17.6546528,5.07031576 17.8785105,4.84645814 18.1546528,4.84645814 L21.5189222,4.84645814 Z" id="路径-7备份" fill-rule="nonzero"></path>
                            <path d="M21.5189222,6.84645814 C21.7950645,6.84645814 22.0189222,7.07031576 22.0189222,7.34645814 C22.0189222,7.62260051 21.7950645,7.84645814 21.5189222,7.84645814 L18.1546528,7.84645814 C17.8785105,7.84645814 17.6546528,7.62260051 17.6546528,7.34645814 C17.6546528,7.07031576 17.8785105,6.84645814 18.1546528,6.84645814 L21.5189222,6.84645814 Z" id="路径-7备份-2" fill-rule="nonzero"></path>
                        </g>
                    </g>
                </g>
            </g>
        </g>
    </g>
</svg>