<?xml version="1.0" encoding="UTF-8"?>
<svg width="20px" height="20px" viewBox="0 0 20 20" version="1.1" xmlns="http://www.w3.org/2000/svg" xmlns:xlink="http://www.w3.org/1999/xlink">
    <title>图标/24/BNB备份 5</title>
    <g id="页面-1" stroke="none" stroke-width="1" fill="none" fill-rule="evenodd" stroke-linecap="round" stroke-linejoin="round">
        <g id="首页-排行-1-积分" transform="translate(-313.000000, -304.000000)" fill-rule="nonzero" stroke="#080606" stroke-width="0.579989712">
            <g id="编组-16" transform="translate(30.000000, 299.000000)">
                <g id="编组-9" transform="translate(283.000000, 5.000000)">
                    <g id="图标/24/BNB备份-5" transform="translate(0.833333, 0.833333)">
                        <g id="编组-14" transform="translate(-0.000000, -0.000000)">
                            <circle id="椭圆形" fill="#EFEB52" cx="9.16666667" cy="9.16666667" r="9.16666667"></circle>
                            <circle id="椭圆形" fill="#F49B20" cx="9.16666667" cy="9.16666667" r="7.07304527"></circle>
                            <path d="M9.51748971,8.02366255 L9.51748971,9.72119342 C9.51748971,9.72119342 11.4583333,9.45524691 11.3847737,9.72119342 C11.0797217,10.6926929 10.2007688,11.3705486 9.18364198,11.4187243 C7.94495807,11.3917543 6.94723748,10.3940337 6.92026749,9.15534979 C6.92026749,7.90532258 7.93361476,6.89197531 9.18364198,6.89197531 C9.66691851,6.89398758 10.1368628,7.05063566 10.5246914,7.33899177 C11.6563786,7.05041152 12.024177,6.6090535 11.8317901,5.36985597 C11.0593124,4.81810506 10.1329249,4.52316543 9.18364198,4.5267167 C7.30365394,4.52446049 5.60761492,5.65547916 4.88711711,7.3919247 C4.16661929,9.12837025 4.56371532,11.1278868 5.8930686,12.45724 C7.22242187,13.7865933 9.22193839,14.1836893 10.9583839,13.4631915 C12.6948295,12.7426937 13.8258482,11.0466547 13.8235631,9.16666667 C13.816396,8.78444305 13.7632005,8.40447517 13.6651235,8.03497942 L9.51748971,8.02366255 Z" id="路径" fill="#EFEB52"></path>
                        </g>
                    </g>
                </g>
            </g>
        </g>
    </g>
</svg>